<?xml version="1.0" encoding="UTF-8" standalone="no"?>
<svg
   xmlns:dc="http://purl.org/dc/elements/1.1/"
   xmlns:cc="http://creativecommons.org/ns#"
   xmlns:rdf="http://www.w3.org/1999/02/22-rdf-syntax-ns#"
   xmlns:svg="http://www.w3.org/2000/svg"
   xmlns="http://www.w3.org/2000/svg"
   xmlns:sodipodi="http://sodipodi.sourceforge.net/DTD/sodipodi-0.dtd"
   xmlns:inkscape="http://www.inkscape.org/namespaces/inkscape"
   width="299"
   zoomAndPan="magnify"
   viewBox="0 0 224.25 74.999998"
   height="100"
   preserveAspectRatio="xMidYMid meet"
   version="1.0"
   id="svg3969"
   sodipodi:docname="dpctl.svg"
   inkscape:version="0.92.5 (2060ec1f9f, 2020-04-08)">
  <metadata
     id="metadata3973">
    <rdf:RDF>
      <cc:Work
         rdf:about="">
        <dc:format>image/svg+xml</dc:format>
        <dc:type
           rdf:resource="http://purl.org/dc/dcmitype/StillImage" />
      </cc:Work>
    </rdf:RDF>
  </metadata>
  <sodipodi:namedview
     pagecolor="#ffffff"
     bordercolor="#666666"
     borderopacity="1"
     objecttolerance="10"
     gridtolerance="10"
     guidetolerance="10"
     inkscape:pageopacity="0"
     inkscape:pageshadow="2"
     inkscape:window-width="1422"
     inkscape:window-height="823"
     id="namedview3971"
     showgrid="false"
     inkscape:zoom="1"
     inkscape:cx="146.14164"
     inkscape:cy="-65.089676"
     inkscape:window-x="-23"
     inkscape:window-y="-26"
     inkscape:window-maximized="0"
     inkscape:current-layer="svg3969" />
  <defs
     id="defs3865">
    <g
       id="g3863" />
  </defs>
  <g
     id="g3873"
     clip-path="none"
     transform="translate(-63,-103.5)"
     style="fill:#000000;fill-opacity:1">
    <g
       transform="translate(71.174993,161.15719)"
       id="g3871">
      <g
         id="g3869">
        <path
           d="m 43.96875,-24.078125 c 0,4.292969 -0.5625,7.964844 -1.6875,11.015625 -1.117188,3.042969 -2.726562,5.527344 -4.828125,7.453125 -2.09375,1.929687 -4.640625,3.34375 -7.640625,4.25 C 26.8125,-0.453125 23.238281,0 19.09375,0 H 7.921875 C 7.117188,0 6.445312,-0.234375 5.90625,-0.703125 5.363281,-1.171875 5.09375,-1.9375 5.09375,-3 v -40.796875 c 0,-1.0625 0.269531,-1.828125 0.8125,-2.296875 0.539062,-0.46875 1.210938,-0.703125 2.015625,-0.703125 h 12 c 4.175781,0 7.710937,0.492187 10.609375,1.46875 2.90625,0.980469 5.351562,2.429687 7.34375,4.34375 1.988281,1.917969 3.5,4.289063 4.53125,7.109375 1.039062,2.8125 1.5625,6.078125 1.5625,9.796875 z m -9.828125,0.3125 c 0,-2.21875 -0.261719,-4.273437 -0.78125,-6.171875 -0.523437,-1.90625 -1.355469,-3.554688 -2.5,-4.953125 -1.148437,-1.40625 -2.617187,-2.5 -4.40625,-3.28125 -1.792969,-0.78125 -4.148437,-1.171875 -7.0625,-1.171875 h -4.8125 v 31.828125 h 4.953125 c 2.601562,0 4.796875,-0.335937 6.578125,-1.015625 1.78125,-0.675781 3.265625,-1.695312 4.453125,-3.0625 1.195312,-1.363281 2.09375,-3.054688 2.6875,-5.078125 0.59375,-2.019531 0.890625,-4.382813 0.890625,-7.09375 z m 0,0"
           id="path3867"
           inkscape:connector-curvature="0" />
      </g>
    </g>
  </g>
  <g
     id="g3881"
     clip-path="none"
     transform="translate(-63,-103.5)"
     style="fill:#000000;fill-opacity:1">
    <g
       transform="translate(117.86185,161.15719)"
       id="g3879">
      <g
         id="g3877">
        <path
           d="m 37.140625,-32.578125 c 0,2.625 -0.414063,4.953125 -1.234375,6.984375 -0.8125,2.023438 -2.007812,3.726562 -3.578125,5.109375 -1.5625,1.386719 -3.484375,2.445313 -5.765625,3.171875 -2.28125,0.71875 -4.964844,1.078125 -8.046875,1.078125 h -3.90625 v 14.9375 c 0,0.242187 -0.07813,0.460937 -0.234375,0.65625 -0.15625,0.1875 -0.417969,0.34375 -0.78125,0.46875 -0.355469,0.1171875 -0.835938,0.2070312 -1.4375,0.28125 -0.605469,0.070313 -1.375,0.109375 -2.3125,0.109375 -0.917969,0 -1.683594,-0.039062 -2.296875,-0.109375 C 6.929688,0.0351562 6.441406,-0.0546875 6.078125,-0.171875 5.710938,-0.296875 5.457031,-0.453125 5.3125,-0.640625 5.164062,-0.835938 5.09375,-1.054688 5.09375,-1.296875 v -42.09375 c 0,-1.132813 0.296875,-1.984375 0.890625,-2.546875 0.59375,-0.570312 1.367187,-0.859375 2.328125,-0.859375 h 11.03125 c 1.113281,0 2.171875,0.04297 3.171875,0.125 1,0.08594 2.195313,0.265625 3.59375,0.546875 1.394531,0.28125 2.8125,0.796875 4.25,1.546875 1.4375,0.742187 2.660156,1.683594 3.671875,2.828125 1.007812,1.148438 1.78125,2.484375 2.3125,4.015625 0.53125,1.53125 0.796875,3.25 0.796875,5.15625 z m -9.953125,0.6875 c 0,-1.644531 -0.292969,-2.992187 -0.875,-4.046875 C 25.738281,-37 25.03125,-37.785156 24.1875,-38.296875 23.34375,-38.804688 22.457031,-39.125 21.53125,-39.25 c -0.929688,-0.132812 -1.886719,-0.203125 -2.875,-0.203125 h -4.046875 v 15.875 H 18.875 c 1.519531,0 2.789062,-0.203125 3.8125,-0.609375 1.03125,-0.414062 1.867188,-0.988281 2.515625,-1.71875 0.65625,-0.738281 1.148437,-1.617188 1.484375,-2.640625 0.332031,-1.03125 0.5,-2.144531 0.5,-3.34375 z m 0,0"
           id="path3875"
           inkscape:connector-curvature="0" />
      </g>
    </g>
  </g>
  <g
     id="g3889"
     clip-path="none"
     transform="translate(-63,-103.5)"
     style="fill:#000000;fill-opacity:1">
    <g
       transform="translate(157.27988,161.15719)"
       id="g3887">
      <g
         id="g3885">
        <path
           d="m 37.46875,-7.09375 c 0,0.605469 -0.02344,1.121094 -0.0625,1.546875 -0.03125,0.417969 -0.08594,0.777344 -0.15625,1.078125 -0.07422,0.304688 -0.171875,0.5625 -0.296875,0.78125 -0.117187,0.21875 -0.308594,0.46875 -0.578125,0.75 -0.261719,0.273438 -0.773438,0.625 -1.53125,1.0625 -0.761719,0.429688 -1.695312,0.84375 -2.796875,1.25 -1.09375,0.398438 -2.34375,0.7226562 -3.75,0.984375 -1.40625,0.269531 -2.933594,0.40625 -4.578125,0.40625 -3.210938,0 -6.105469,-0.496094 -8.6875,-1.484375 C 12.457031,-1.707031 10.265625,-3.179688 8.453125,-5.140625 6.648438,-7.109375 5.265625,-9.5625 4.296875,-12.5 c -0.960937,-2.945312 -1.4375,-6.375 -1.4375,-10.28125 0,-3.976562 0.53125,-7.507812 1.59375,-10.59375 1.0625,-3.082031 2.539063,-5.671875 4.4375,-7.765625 1.90625,-2.101563 4.191406,-3.695313 6.859375,-4.78125 2.664062,-1.09375 5.601562,-1.640625 8.8125,-1.640625 1.289062,0 2.539062,0.109375 3.75,0.328125 1.207031,0.21875 2.320312,0.507813 3.34375,0.859375 1.03125,0.34375 1.953125,0.746094 2.765625,1.203125 0.820313,0.460937 1.394531,0.855469 1.71875,1.1875 0.332031,0.324219 0.554687,0.59375 0.671875,0.8125 0.125,0.210937 0.222656,0.484375 0.296875,0.828125 0.07031,0.335938 0.125,0.730469 0.15625,1.1875 0.03906,0.460938 0.0625,1.027344 0.0625,1.703125 0,0.71875 -0.02734,1.335937 -0.07813,1.84375 -0.05469,0.511719 -0.140625,0.921875 -0.265625,1.234375 -0.117187,0.3125 -0.257813,0.542969 -0.421875,0.6875 -0.167969,0.148438 -0.359375,0.21875 -0.578125,0.21875 -0.367187,0 -0.824219,-0.207031 -1.375,-0.625 -0.554687,-0.425781 -1.273437,-0.898438 -2.15625,-1.421875 -0.875,-0.519531 -1.921875,-0.988281 -3.140625,-1.40625 -1.21875,-0.425781 -2.671875,-0.640625 -4.359375,-0.640625 -1.855469,0 -3.511719,0.382812 -4.96875,1.140625 -1.460937,0.761719 -2.703125,1.851563 -3.734375,3.265625 -1.023438,1.40625 -1.796875,3.109375 -2.328125,5.109375 -0.53125,2 -0.796875,4.25 -0.796875,6.75 0,2.75 0.28125,5.136719 0.84375,7.15625 0.570312,2.011719 1.378906,3.667969 2.421875,4.96875 1.050781,1.304687 2.316406,2.273437 3.796875,2.90625 1.488281,0.636719 3.160156,0.953125 5.015625,0.953125 1.6875,0 3.144531,-0.195312 4.375,-0.59375 1.226563,-0.394531 2.28125,-0.832031 3.15625,-1.3125 0.882813,-0.476562 1.609375,-0.910156 2.171875,-1.296875 0.570312,-0.394531 1.015625,-0.59375 1.328125,-0.59375 0.238281,0 0.429687,0.05469 0.578125,0.15625 0.144531,0.09375 0.265625,0.289063 0.359375,0.578125 0.101563,0.292969 0.175781,0.699219 0.21875,1.21875 0.05078,0.511719 0.07813,1.199219 0.07813,2.0625 z m 0,0"
           id="path3883"
           inkscape:connector-curvature="0" />
      </g>
    </g>
  </g>
  <g
     id="g3897"
     style="fill:#000000;fill-opacity:1"
     clip-path="none"
     transform="translate(-66,-103.5)">
    <g
       transform="translate(246.82669,161.15719)"
       id="g3895">
      <g
         id="g3893">
        <path
           d="m 30.8125,-3.984375 c 0,0.730469 -0.03125,1.34375 -0.09375,1.84375 -0.0625,0.492187 -0.15625,0.898437 -0.28125,1.21875 -0.117188,0.324219 -0.265625,0.558594 -0.453125,0.703125 C 29.804688,-0.0703125 29.597656,0 29.359375,0 H 7.921875 C 7.117188,0 6.445312,-0.234375 5.90625,-0.703125 5.363281,-1.171875 5.09375,-1.9375 5.09375,-3 v -42.5 c 0,-0.238281 0.078125,-0.453125 0.234375,-0.640625 0.15625,-0.195313 0.414063,-0.351563 0.78125,-0.46875 0.363281,-0.125 0.851563,-0.222656 1.46875,-0.296875 0.613281,-0.07031 1.378906,-0.109375 2.296875,-0.109375 0.9375,0 1.707031,0.03906 2.3125,0.109375 0.601562,0.07422 1.082031,0.171875 1.4375,0.296875 0.363281,0.117187 0.625,0.273437 0.78125,0.46875 0.15625,0.1875 0.234375,0.402344 0.234375,0.640625 v 37.65625 h 14.71875 c 0.238281,0 0.445313,0.070312 0.625,0.203125 0.1875,0.125 0.335937,0.339844 0.453125,0.640625 0.125,0.304688 0.21875,0.703125 0.28125,1.203125 0.0625,0.492187 0.09375,1.09375 0.09375,1.8125 z m 0,0"
           id="path3891"
           inkscape:connector-curvature="0" />
      </g>
    </g>
  </g>
  <g
     id="g3905"
     style="fill:#000000;fill-opacity:1"
     clip-path="none"
     transform="translate(-64.5,-103.5)">
    <g
       transform="translate(203.79242,161.88236)"
       id="g3903">
      <g
         id="g3901">
        <path
           d="m 36.234375,-42.890625 c 0,0.699219 -0.03125,1.296875 -0.09375,1.796875 -0.05469,0.492188 -0.140625,0.886719 -0.265625,1.1875 -0.125,0.304688 -0.277344,0.527344 -0.453125,0.671875 -0.179687,0.148437 -0.375,0.21875 -0.59375,0.21875 h -11.71875 v 37.71875 c 0,0.242187 -0.07813,0.460937 -0.234375,0.65625 -0.15625,0.1875 -0.417969,0.34375 -0.78125,0.46875 -0.367188,0.1171875 -0.855469,0.2070312 -1.46875,0.28125 -0.617188,0.070313 -1.382812,0.109375 -2.296875,0.109375 -0.917969,0 -1.683594,-0.039062 -2.296875,-0.109375 -0.617188,-0.0742188 -1.105469,-0.1640625 -1.46875,-0.28125 -0.355469,-0.125 -0.609375,-0.28125 -0.765625,-0.46875 -0.15625,-0.195313 -0.234375,-0.414063 -0.234375,-0.65625 v -37.71875 H 1.84375 c -0.242188,0 -0.449219,-0.07031 -0.625,-0.21875 -0.167969,-0.144531 -0.3125,-0.367187 -0.4375,-0.671875 -0.117188,-0.300781 -0.203125,-0.695312 -0.265625,-1.1875 -0.054687,-0.5 -0.078125,-1.097656 -0.078125,-1.796875 0,-0.71875 0.023438,-1.332031 0.078125,-1.84375 0.0625,-0.507813 0.148437,-0.910156 0.265625,-1.203125 0.125,-0.300781 0.269531,-0.519531 0.4375,-0.65625 0.175781,-0.132812 0.382812,-0.203125 0.625,-0.203125 h 32.984375 c 0.21875,0 0.414063,0.07031 0.59375,0.203125 0.175781,0.136719 0.328125,0.355469 0.453125,0.65625 0.125,0.292969 0.210938,0.695312 0.265625,1.203125 0.0625,0.511719 0.09375,1.125 0.09375,1.84375 z m 0,0"
           id="path3899"
           inkscape:connector-curvature="0" />
      </g>
    </g>
  </g>
  <g
     id="g3913"
     transform="rotate(-90,127.68601,115.91278)"
     style="fill:#38b6ff;fill-opacity:1"
     clip-path="none">
    <g
       transform="translate(197.95312,137.53241)"
       id="g3911">
      <g
         id="g3909">
        <path
           d="M 4.0625,0.140625 C 3.382812,0.140625 2.785156,0 2.265625,-0.28125 1.742188,-0.570312 1.335938,-0.988281 1.046875,-1.53125 0.765625,-2.070312 0.625,-2.726562 0.625,-3.5 c 0,-0.769531 0.140625,-1.425781 0.421875,-1.96875 0.289063,-0.550781 0.695313,-0.96875 1.21875,-1.25 C 2.785156,-7 3.382812,-7.140625 4.0625,-7.140625 4.75,-7.140625 5.351562,-7 5.875,-6.71875 c 0.519531,0.28125 0.921875,0.699219 1.203125,1.25 0.289063,0.542969 0.4375,1.199219 0.4375,1.96875 0,0.773438 -0.148437,1.429688 -0.4375,1.96875 -0.28125,0.542969 -0.683594,0.960938 -1.203125,1.25 C 5.351562,0 4.75,0.140625 4.0625,0.140625 Z m 0,-1.5 c 1.09375,0 1.640625,-0.710937 1.640625,-2.140625 0,-0.738281 -0.140625,-1.28125 -0.421875,-1.625 C 5,-5.46875 4.59375,-5.640625 4.0625,-5.640625 c -1.085938,0 -1.625,0.714844 -1.625,2.140625 0,1.429688 0.539062,2.140625 1.625,2.140625 z m 0,0"
           id="path3907"
           inkscape:connector-curvature="0" />
      </g>
    </g>
  </g>
  <g
     id="g3921"
     transform="rotate(-90,126.24462,114.4621)"
     style="fill:#38b6ff;fill-opacity:1"
     clip-path="none">
    <g
       transform="translate(206.08837,137.53241)"
       id="g3919">
      <g
         id="g3917">
        <path
           d="m 1.015625,0 v -7 h 1.6875 v 1.03125 l 0.125,0.03125 c 0.4375,-0.800781 1.144531,-1.203125 2.125,-1.203125 0.800781,0 1.390625,0.226563 1.765625,0.671875 0.382812,0.4375 0.578125,1.078125 0.578125,1.921875 V 0 h -1.75 v -4.328125 c 0,-0.46875 -0.09375,-0.804687 -0.28125,-1.015625 -0.1875,-0.207031 -0.484375,-0.3125 -0.890625,-0.3125 -0.511719,0 -0.90625,0.167969 -1.1875,0.5 C 2.90625,-4.832031 2.765625,-4.320312 2.765625,-3.625 V 0 Z m 0,0"
           id="path3915"
           inkscape:connector-curvature="0" />
      </g>
    </g>
  </g>
  <g
     id="g3927"
     style="fill:#38b6ff;fill-opacity:1"
     transform="translate(-30,-22.5)">
    <g
       transform="translate(214.28905,137.53241)"
       id="g3925">
      <g
         id="g3923" />
    </g>
  </g>
  <g
     id="g3933"
     style="fill:#38b6ff;fill-opacity:1"
     transform="translate(-30,-22.5)">
    <g
       transform="translate(217.35406,137.53241)"
       id="g3931">
      <g
         id="g3929" />
    </g>
  </g>
  <g
     id="g3939"
     style="fill:#38b6ff;fill-opacity:1"
     transform="translate(-30,-22.5)">
    <g
       transform="translate(220.41906,137.53241)"
       id="g3937">
      <g
         id="g3935" />
    </g>
  </g>
  <g
     id="g3945"
     style="fill:#38b6ff;fill-opacity:1"
     transform="translate(-30,-22.5)">
    <g
       transform="translate(223.48406,137.53241)"
       id="g3943">
      <g
         id="g3941" />
    </g>
  </g>
  <g
     id="g3951"
     style="fill:#38b6ff;fill-opacity:1"
     transform="translate(-30,-22.5)">
    <g
       transform="translate(226.54906,137.53241)"
       id="g3949">
      <g
         id="g3947" />
    </g>
  </g>
  <g
     id="g3959"
     transform="rotate(90,253.08593,49.25116)"
     style="fill:#38b6ff;fill-opacity:1"
     clip-path="none">
    <g
       transform="translate(229.61718,137.53241)"
       id="g3957">
      <g
         id="g3955">
        <path
           d="M 1.015625,0 V -7 H 2.71875 v 1.046875 l 0.125,0.015625 c 0.175781,-0.382812 0.398438,-0.664062 0.671875,-0.84375 0.269531,-0.1875 0.601563,-0.28125 1,-0.28125 0.394531,0 0.695313,0.070312 0.90625,0.203125 L 5.125,-5.34375 5,-5.3125 C 4.882812,-5.363281 4.769531,-5.398438 4.65625,-5.421875 c -0.105469,-0.019531 -0.230469,-0.03125 -0.375,-0.03125 -0.492188,0 -0.867188,0.171875 -1.125,0.515625 -0.261719,0.34375 -0.390625,0.898438 -0.390625,1.65625 V 0 Z m 0,0"
           id="path3953"
           inkscape:connector-curvature="0" />
      </g>
    </g>
  </g>
  <g
     id="g3967"
     transform="rotate(90,250.45418,51.81308)"
     style="fill:#38b6ff;fill-opacity:1"
     clip-path="none">
    <g
       transform="translate(235.10626,137.53241)"
       id="g3965">
      <g
         id="g3963">
        <path
           d="M 4.0625,0.140625 C 3.382812,0.140625 2.785156,0 2.265625,-0.28125 1.742188,-0.570312 1.335938,-0.988281 1.046875,-1.53125 0.765625,-2.070312 0.625,-2.726562 0.625,-3.5 c 0,-0.769531 0.140625,-1.425781 0.421875,-1.96875 0.289063,-0.550781 0.695313,-0.96875 1.21875,-1.25 C 2.785156,-7 3.382812,-7.140625 4.0625,-7.140625 4.75,-7.140625 5.351562,-7 5.875,-6.71875 c 0.519531,0.28125 0.921875,0.699219 1.203125,1.25 0.289063,0.542969 0.4375,1.199219 0.4375,1.96875 0,0.773438 -0.148437,1.429688 -0.4375,1.96875 -0.28125,0.542969 -0.683594,0.960938 -1.203125,1.25 C 5.351562,0 4.75,0.140625 4.0625,0.140625 Z m 0,-1.5 c 1.09375,0 1.640625,-0.710937 1.640625,-2.140625 0,-0.738281 -0.140625,-1.28125 -0.421875,-1.625 C 5,-5.46875 4.59375,-5.640625 4.0625,-5.640625 c -1.085938,0 -1.625,0.714844 -1.625,2.140625 0,1.429688 0.539062,2.140625 1.625,2.140625 z m 0,0"
           id="path3961"
           inkscape:connector-curvature="0" />
      </g>
    </g>
  </g>
</svg>
